<?xml version="1.0" encoding="UTF-8" standalone="no"?>
<svg
   xmlns:dc="http://purl.org/dc/elements/1.1/"
   xmlns:cc="http://creativecommons.org/ns#"
   xmlns:rdf="http://www.w3.org/1999/02/22-rdf-syntax-ns#"
   xmlns:svg="http://www.w3.org/2000/svg"
   xmlns="http://www.w3.org/2000/svg"
   xmlns:sodipodi="http://sodipodi.sourceforge.net/DTD/sodipodi-0.dtd"
   xmlns:inkscape="http://www.inkscape.org/namespaces/inkscape"
   width="101mm"
   height="282mm"
   viewBox="0 0 101 282"
   version="1.1"
   id="svg114"
   inkscape:version="1.0.2-2 (e86c870879, 2021-01-15)"
   sodipodi:docname="person.svg">
  <defs
     id="defs108" />
  <sodipodi:namedview
     id="base"
     pagecolor="#ffffff"
     bordercolor="#666666"
     borderopacity="1.0"
     inkscape:pageopacity="0.0"
     inkscape:pageshadow="2"
     inkscape:zoom="0.49497475"
     inkscape:cx="528.51041"
     inkscape:cy="295.9044"
     inkscape:document-units="mm"
     inkscape:current-layer="layer1"
     inkscape:document-rotation="0"
     showgrid="false"
     inkscape:pagecheckerboard="true"
     inkscape:window-width="1920"
     inkscape:window-height="1017"
     inkscape:window-x="1912"
     inkscape:window-y="-8"
     inkscape:window-maximized="1" />
  <metadata
     id="metadata111">
    <rdf:RDF>
      <cc:Work
         rdf:about="">
        <dc:format>image/svg+xml</dc:format>
        <dc:type
           rdf:resource="http://purl.org/dc/dcmitype/StillImage" />
        <dc:title></dc:title>
      </cc:Work>
    </rdf:RDF>
  </metadata>
  <g
     inkscape:groupmode="layer"
     id="layer3"
     inkscape:label="Layer 2">
    <path
       style="fill:#ffffff;fill-opacity:1;stroke:#0000ff;stroke-width:0.190531;stroke-opacity:0"
       d="m 66.622403,64.58687 c -0.312632,-0.193783 -0.809676,-0.673817 -1.104542,-1.06674 -0.604266,-0.805221 -1.229197,-0.878052 -1.53136,-0.178466 -0.175825,0.407065 -0.263402,0.375376 -3.368635,-1.218982 -1.753464,-0.900305 -3.494348,-1.909547 -3.868624,-2.242755 -2.130036,-1.896309 -6.606008,-8.039187 -6.410731,-8.798167 0.06064,-0.235694 -0.05044,-0.535701 -0.287595,-0.776743 -0.348978,-0.354698 -0.529876,-0.380009 -1.868032,-0.261366 -1.245428,0.110422 -1.614199,0.07176 -2.313161,-0.242488 -1.691307,-0.760411 -2.528799,-2.774699 -2.087048,-5.019653 0.107565,-0.546645 0.1747,-0.600632 0.60908,-0.489824 0.469747,0.119832 0.475888,0.110721 0.162591,-0.241143 -0.179078,-0.201124 -0.325596,-0.451362 -0.325596,-0.556085 0,-0.416645 1.361691,-1.772464 2.166138,-2.156797 1.17137,-0.559634 1.648256,-0.522281 2.150711,0.168463 0.429308,0.590188 1.378624,0.807907 1.641032,0.376357 0.06685,-0.109943 0.283441,-0.147675 0.481301,-0.08384 0.306591,0.09891 0.347462,0.03619 0.276614,-0.424381 -0.04572,-0.297235 -0.130609,-2.622358 -0.188635,-5.166933 -0.121994,-5.349528 -0.256447,-4.945719 1.882817,-5.654693 2.661209,-0.881949 3.333294,-2.269606 2.522318,-5.207832 -0.638077,-2.311804 -0.626062,-4.885054 0.02903,-6.216709 0.272254,-0.553433 0.592601,-0.950196 0.755953,-0.936281 0.155916,0.01328 1.346542,0.244344 2.645836,0.513468 3.074448,0.636815 7.019556,1.21601 10.19208,1.496336 4.40733,0.389435 12.646718,0.04219 16.519112,-0.696176 l 0.65322,-0.124554 0.0918,1.698423 c 0.11244,2.080544 0.43259,5.013748 1.53768,14.087979 1.969493,16.171897 2.128153,18.704751 1.290463,20.601385 -1.497543,3.390605 -7.806945,6.988763 -15.216711,8.67788 -2.775162,0.632621 -6.13477,0.699611 -7.037091,0.140324 z M 51.599293,47.07662 c 0.522908,-0.531478 0.472481,-1.196164 -0.137814,-1.816458 -0.672878,-0.683912 -1.24681,-0.970401 -2.47207,-1.233994 -1.205182,-0.259272 -2.195622,-0.12464 -3.163014,0.429951 -1.037537,0.594803 -1.051287,0.891727 -0.0413,0.891727 1.281099,0 2.656148,0.502029 3.667162,1.338877 1.030103,0.85265 1.591448,0.954589 2.147032,0.389897 z"
       id="path995" />
  </g>
  <g
     inkscape:label="Layer 1"
     inkscape:groupmode="layer"
     id="layer1">
    <g
       id="face/Suspicious"
       stroke="none"
       stroke-width="1"
       fill="none"
       fill-rule="evenodd"
       transform="matrix(0.26458333,0,0,0.26458333,51.664163,49.219565)">
      <path
         d="m 79.464177,26.501413 c 4.377749,-0.609256 9.085019,-3.088569 13.266443,-1.073729 1.954611,0.941686 2.882392,4.162302 1.560787,5.952438 -2.018316,2.734136 -4.102073,3.186445 -7.378288,3.44938 -2.456147,0.196905 -4.925617,0.211384 -7.375401,-0.07182 l -0.623134,-0.07625 c -4.371187,-0.564227 -8.914459,-1.784275 -12.301028,-4.721951 -0.692649,-0.601149 -0.337644,-1.899593 0.551342,-2.087233 4.02157,-0.84613 8.228478,-0.803855 12.299279,-1.370837 z m 8.646847,-61.716177 c 4.373335,2.658294 11.036942,8.85692 6.332243,15.447159 -5.537869,5.81083 -13.511177,-0.851682 -17.440284,-3.864881 -3.643241,-2.335241 -7.736639,3.670835 -4.356432,6.397623 28.391779,21.0201575 39.913779,-17.284793 17.676449,-21.105401 -2.448411,-0.42102 -3.357763,2.303124 -2.211976,3.1255 z M 110.49474,-64.96361 c 1.02695,0 2.00915,0.348568 2.90363,0.993552 0.88038,0.634798 1.67736,1.561273 2.34116,2.716804 1.25616,2.186687 2.04142,5.205923 2.04142,8.544325 0,3.338396 -0.78526,6.357635 -2.04142,8.544325 -0.6638,1.155533 -1.46078,2.082003 -2.34116,2.716803 -0.89448,0.644983 -1.87668,0.993552 -2.90363,0.993552 -1.02693,0 -2.00913,-0.348569 -2.90362,-0.993552 -0.88037,-0.6348 -1.67735,-1.56127 -2.34116,-2.716803 -1.25615,-2.18669 -2.04142,-5.205929 -2.04142,-8.544325 0,-3.338402 0.78527,-6.357638 2.04142,-8.544325 0.66381,-1.155531 1.46079,-2.082006 2.34116,-2.716804 0.89449,-0.644984 1.87669,-0.993552 2.90362,-0.993552 z m -47.557704,3.405133 0.386605,-0.07331 c 2.255619,-0.410257 3.395443,-0.272166 5.359656,1.265185 1.476235,1.155392 1.053464,3.430849 0,4.645891 -1.834914,2.117335 -3.627781,1.742318 -6.141341,1.823101 l -0.176534,0.0065 c -2.094767,0.08514 -4.19126,0.144789 -6.287765,0.176641 -0.573351,0.0093 -1.14729,0.0069 -1.720641,0.01045 0.06081,5.305534 -2.998227,9.345067 -7.026746,12.416265 -2.603828,1.985882 -5.897416,-0.30521 -6.826371,-2.776993 -0.768514,-2.045534 -0.933568,-4.560759 -0.535119,-6.800306 0.147587,-0.825527 0.455274,-1.721606 0.925738,-2.485725 l 0.132351,-0.204978 -0.02136,-0.293047 c -0.0047,-0.07239 0,-0.142471 -0.0023,-0.214863 -3.739801,-0.227251 -7.45805,-0.602277 -11.174973,-1.07356 l -1.238955,-0.160609 c -3.172542,-0.419881 -7.831755,-0.554818 -10.3991,-2.618311 -0.08111,-0.06602 -0.05212,-0.210227 0.03357,-0.255981 1.411357,-0.760124 2.84328,-0.717106 4.42171,-0.787182 l 0.226504,-0.01092 c 1.716579,-0.08861 3.42925,-0.16256 5.144855,-0.221361 l 1.716837,-0.05375 c 4.391072,-0.125674 8.786183,-0.338799 13.173205,-0.572194 0.762727,-0.04054 1.525466,-0.08861 2.289355,-0.13552 0.798635,-0.334745 1.647663,-0.535128 2.486256,-0.572193 0.694973,-0.03127 1.363311,0.06487 1.99168,0.264669 1.602341,-0.123793 3.203708,-0.258658 4.803866,-0.403629 l 1.599723,-0.148295 c 2.257509,-0.214863 4.630841,-0.308684 6.85938,-0.745938 z m 27.722798,-39.764113 c 4.826004,-2.3716 10.693886,-2.42951 15.664096,-0.46679 l 0.32939,0.13337 c 5.0197,2.083136 11.06833,6.894795 9.75871,12.888091 -1.19824,5.485649 -9.80259,4.556124 -10.23868,-0.628944 -2.77815,-3.848992 -9.008003,-4.693384 -12.924174,-2.245924 -2.375057,1.484922 -4.005348,3.985088 -5.119629,6.506678 -0.94979,2.147465 -1.128742,4.799364 -2.587605,6.669997 -0.04742,0.06082 -0.142469,0.07182 -0.211397,0.05559 -4.350516,-1.006552 -4.45129,-7.919788 -3.70941,-11.273032 1.077786,-4.875235 4.537016,-9.425562 9.038699,-11.639046 z"
         id="ðŸ–-Ink"
         fill="#000000"
         style="stroke-width:0.579144"
         sodipodi:nodetypes="scccccccssccccccsssssssssssssccsccccccccccccccccccccscccccccsccccccsccss" />
      <g
         id="pose/standing/easing-1"
         stroke="none"
         stroke-width="1"
         fill="none"
         fill-rule="evenodd"
         transform="matrix(0.33258217,0,0,0.33258217,-215.53081,57.784244)">
        <path
           d="m 1136.9193,1005.631 c 26.3364,0.592 15.0434,-245.63574 -2.543,-291.00893 -2.4627,-9.19531 -4.4964,-21.75982 -4.0868,-33.0432 21.7515,2.17898 19.4097,-12.73912 18.2866,-30.72784 0.369,-14.28373 1.3599,-43.75523 -20.4566,-32.27968 -65.4059,-131.21092 5.3136,-470.38986 -166.89838,-502.33583 -20.75138,-5.05019 -42.19898,-10.27602 -59.67051,-24.69303 -18.48689,-34.242726 -27.90262,-38.616183 -58.53624,-40.831323 -5.6724,-30.844593 -16.27525,-63.795843 -47.8724,-75.798309 -28.92916,-11.358795 -62.59769,-12.264895 -92.76276,-6.203221 -24.96732,8.160066 -27.25112,54.662521 -32.79749,77.589846 -33.62685,-8.934952 -75.06863,-27.727485 -93.17235,14.873677 -8.76829,-2.626346 -16.89322,-0.921597 -25.8038,2.001272 -74.67835,12.057226 -147.13388,45.909408 -174.8322,116.543878 -17.1097,42.38626 -4.96704,88.5271 1.44935,132.42594 5.98443,47.80117 -9.79584,92.08641 -17.11071,138.06505 -10.89151,63.31438 -12.86125,114.09937 -5.75372,161.15767 -18.78672,4.28254 -20.17205,21.40545 -12.57157,39.32288 2.23196,6.06271 4.48019,12.455 9.41572,15.88206 10.03978,6.3334 23.01587,-0.96499 33.92668,-2.08186 2.26958,25.28298 6.66439,50.09173 13.93556,78.28621 -2.10593,8.44006 -4.52085,17.86474 -6.6898,26.33993 l -0.73179,-0.79659 c -24.9104,104.55278 -98.9962,206.1114 -75.97016,317.228 1.35381,3.7019 3.92321,2.9301 5.896,2.866 11.43019,4.3549 21.92937,1.5911 33.45611,2.0354 27.34055,0.02 53.75519,3.5283 78.25904,6.5824 4.47918,29.3206 19.04184,77.3222 45.01232,88.5013 0.43704,0.1498 8.13509,-1.4589 8.77845,-1.5054 -69.13604,280.9003 -193.5305,540.6441 -242.94271,827.2052 -0.29272,3.4973 5.38578,1.6459 7.2488,2.0716 -0.25511,7.9523 4.87252,9.8637 12.05221,12.6916 -9.25209,19.3814 -17.58639,38.738 -26.7968,58.1691 -4.27082,9.6179 -11.23097,19.118 -12.49941,29.4002 -10.1963,6.5297 -17.06397,19.2936 -16.88203,31.2072 -27.49607,11.645 -20.02264,69.1633 -26.29573,97.6522 -6.34321,42.441 -36.51438,72.0788 -57.20173,106.8754 -4.21594,6.9853 -8.70528,16.1383 -8.90449,24.911 -12.82465,6.0245 -17.606706,19.1851 -16.75803,41.3355 -0.04574,25.9174 7.24982,35.7853 26.92181,36.4124 53.43301,5.3498 115.78473,3.1708 169.52773,-2.9136 40.20383,-5.1225 75.8299,-0.872 66.84106,-49.2786 -1.84981,-11.7194 1.70345,-27.4971 -5.21809,-36.9806 -4.26777,-28.2317 -1.78476,-56.6886 7.41753,-84.5794 5.59444,-23.4838 15.04591,-71.9934 11.12953,-103.5111 -1.81129,-14.5768 -31.50744,-22.5974 -36.73467,-23.3072 1.66279,-10.9724 0.93088,-30.1467 -4.96106,-37.7726 10.81934,-1.5115 13.53882,-4.3776 15.79213,-16.4183 5.38477,-19.5002 6.10132,-40.6732 19.43619,-57.1029 23.98347,0.309 47.88664,-5.7899 71.85689,-6.5317 l 1.19322,-2.7586 c 14.17745,-0.1819 28.27563,-2.6915 41.73247,-7.6125 2.98408,1.4134 6.8016,2.6274 8.47862,-1.898 l 8.00499,-25.0835 c 93.18455,-297.1461 196.47495,-595.0091 297.18781,-889.9772 5.87873,-14.3416 12.94865,-29.582 22.1428,-42.3625 3.11418,180.4792 40.84517,360.7662 44.08538,541.1586 4.37856,124.0975 3.2514,246.8921 14.90112,371.4318 2.99831,26.3575 6.18567,25.4803 10.11194,23.8634 1.57335,0.2459 5.27601,1.0383 6.88291,1.3762 -2.62632,26.1922 -5.64801,68.7076 -16.85764,95.4969 -24.77726,3.8311 -20.33975,22.8819 -14.8442,38.672 -5.91125,5.0595 -5.07071,16.8518 -3.31644,23.3784 -23.31265,0.025 -28.39556,19.025 -26.79171,31.0161 2.21773,20.052 0.97674,51.2576 14.32991,68.3815 7.86371,21.8384 20.66397,42.4493 25.66353,65.9759 3.14264,17.3109 1.92909,42.5268 4.95891,59.6983 -7.62385,3.5283 -4.39336,9.061 -5.67908,19.7648 -6.59934,48.9965 16.63055,40.668 57.7044,44.0413 24.6187,5.448 212.04178,16.2881 203.94228,-16.3108 1.3813,-13.2754 -4.78,-19.1035 -7.4185,-32.1742 -1.1851,-3.4695 -24.5354,-43.614 -38.4628,-58.8141 -46.7117,-43.9774 -44.6719,-103.0204 -43.192,-171.0305 -2.7473,-18.433 -16.8983,-36.0839 -34.9553,-34.1002 5.1846,-19.6873 -4.4253,-36.8041 -24.50687,-42.4969 2.00633,-22.2899 4.11836,-52.5755 11.46169,-71.8577 l -6.91645,-7.0556 9.25819,1.1086 3.07354,-7.7551 3.352,8.4979 c 15.8941,0 33.8271,-3.5324 49.0524,-5.1927 2.4322,0.1374 1.3467,-3.174 1.7462,-4.451 14.3776,-2.9838 15.952,-10.6386 13.4111,-28.8795 3.3489,-296.1686 1.8955,-589.5569 -2.6823,-886.2742 22.4701,1.0042 44.3812,-7.2085 66.463,-12.6813 7.8454,4.9335 10.0682,-12.6348 9.1505,-16.4276 -1.2451,-19.6304 -3.6692,-38.7783 -5.8503,-56.5997 z"
           id="ðŸŽ¨-Background-7"
           fill="#ffffff" />
        <path
           d="m 675.4659,5.0004 c 3.33988,2.6419793 2.99059,9.965961 3.32032,14.065961 l 0.023,0.26847 c 1.05041,12.384545 -0.37222,24.826122 -3.38494,36.85018 l -0.46582,1.833378 c -1.43956,5.746651 -2.87018,12.634866 -7.3758,16.576713 -5.11706,4.476913 -13.24632,1.578865 -13.43087,-5.640287 -0.0933,-3.355088 1.02526,-6.585528 2.43909,-9.732871 -9.91423,3.832902 -19.82846,7.624256 -29.78371,11.322123 -6.35966,52.692543 67.1051,117.204753 109.63993,139.789793 61.94088,34.35381 114.05775,-18.26602 121.98709,-80.12532 1.3318,-8.21633 2.2248,-16.66118 2.3991,-24.99177 l 0.01,-0.79927 c 0.0346,-6.887833 -1.10556,-16.096896 3.37345,-21.824201 -3.29722,-0.0779 -6.22535,0.386407 -9.45286,0.893305 l 0.1547,0.268573 c 1.82894,3.276107 4.41447,11.430666 -1.37681,12.050728 -12.50198,-1.318144 -18.31723,-23.278908 -21.36532,-33.811599 l -0.11974,-0.456937 c -1.96786,-7.893315 -4.47343,-36.544073 1.4536,-39.979662 1.8229,7.068536 1.10522,14.744728 3.32183,21.834039 5.04426,2.035905 14.64989,2.58643 16.8747,2.961411 25.98103,0.30123 40.71191,18.987927 51.24233,40.862477 30.87047,25.386486 75.24461,21.023836 108.57883,41.931326 102.0058,74.08616 68.6922,362.50219 119.4998,485.2018 10.1726,-4.21723 20.541,4.22658 21.8995,14.53179 1.4046,7.92549 0.9842,16.41188 1.097,24.44124 l 0.048,1.00275 c 0.8305,16.42246 3.6647,34.88012 -18.472,35.23844 0.035,9.1678 1.7573,18.04268 3.9678,26.89263 12.2579,53.56923 17.6077,108.7464 18.8145,163.66182 l 0.061,4.03493 c 0.3984,28.86377 0.751,118.16014 -15.8098,128.72474 l 0.7713,6.2899 c 1.9175,15.73 3.7237,31.5003 4.7333,47.3095 1.5891,8.2059 -3.8191,27.869 -14.8549,22.6639 -20.2386,5.015 -40.1983,12.4149 -61.2284,12.4544 5.0956,169.8474 2.5622,339.8693 3.3157,509.7864 -1.624,125.2517 5.1345,251.5381 -0.773,376.3099 l 0.2136,1.7606 c 1.6697,14.0111 2.1703,26.1931 -13.9921,30.9905 -0.2327,3.4278 -2.8655,5.2591 -5.9874,5.6611 -8.8593,1.1945 -17.7175,2.3267 -26.586,3.4174 -8.2615,0.6149 -17.1013,2.6747 -25.3341,1.6931 0.7956,0.8071 -1.3656,0.9307 -1.5994,0.3428 -7.50694,18.8736 -9.68561,39.4477 -11.5444,59.5814 18.2209,6.9584 28.1649,22.6099 25.1906,42.2346 18.3849,0.7448 31.8106,21.2129 34.3871,38.4641 1.6507,11.9038 0.3281,23.7245 -0.204,35.6491 -2.5447,40.7513 3.4336,84.6541 29.6904,117.158 17.0439,20.4047 39.2325,38.8598 46.6697,65.4294 2.0197,0.9452 3.6806,2.7734 4.4086,5.6299 l 4.7181,18.5516 v 0 l 2.3459,9.2759 c 1.7183,6.7621 3.245,13.6802 2.3237,20.6815 l -0.097,0.6778 c -4.5962,44.3433 -186.03486,22.9694 -221.44723,19.7846 -14.23466,-2.2363 -29.85445,-1.0169 -42.67118,-8.5695 -15.72231,-10.3955 -17.68773,-31.4848 -14.98925,-48.7578 l 0.22435,-1.619 c 1.09274,-7.7235 2.69317,-15.8221 10.00771,-20.1423 -2.46267,-16.0047 -1.50918,-32.3803 -4.43834,-48.3216 -4.42398,-22.558 -17.80666,-42.1318 -24.63794,-63.7882 -9.9655,-11.1019 -10.30178,-28.4102 -12.3851,-42.6086 -1.5789,-13.7735 -2.87072,-27.6405 -3.40283,-41.4971 -1.44664,-18.317 6.48783,-33.4221 25.71241,-35.8153 -0.89197,-3.4704 1.55019,-6.4713 3.97903,-8.6942 -5.73221,-20.3954 -7.31418,-48.3953 17.55136,-55.3537 9.41801,-23.3974 12.15545,-48.7527 14.6622,-73.7081 -0.29835,-0.062 -0.59465,-0.1143 -0.893,-0.1662 -11.39335,4.7523 -14.48554,-15.5897 -15.55244,-26.3348 l -0.23651,-2.5626 C 860.9595,1862.5422 862.0391,1737.6176 857.63562,1613.0431 l -0.43065,-9.0059 c -3.86047,-82.0812 -6.15719,-164.8825 -20.32464,-245.8665 -14.25927,-90.2622 -17.98608,-181.9964 -22.86015,-273.2059 -5.74042,8.9361 -8.82746,19.1998 -13.4729,28.7208 -60.28099,177.4467 -122.13165,354.3585 -181.72675,532.0463 -43.19406,128.6463 -84.46064,257.9782 -125.85025,387.227 -2.11203,6.6167 -8.76595,7.9878 -13.63592,5.8688 -12.39638,4.3086 -25.40586,6.7548 -38.49838,7.1776 -0.78843,1.8177 -2.40833,3.1473 -4.7777,2.8876 -7.0025,-0.7686 -15.06,1.4231 -22.0625,2.2437 -16.02271,1.5861 -31.5779,4.0479 -47.74723,4.2795 -10.01676,12.6891 -10.64626,29.8956 -15.26504,44.9977 -2.65849,7.698 -2.24121,24.9637 -11.42239,27.1315 3.29107,5.0794 3.72168,11.1767 3.18855,17.461 2.85534,0.6503 5.75169,1.8791 8.43786,3.137 2.61646,1.3275 6.0726,1.2132 7.875,3.8848 51.28026,9.3133 13.80508,106.8788 4.8915,139.1479 -8.74852,26.3816 -11.488,53.9359 -7.49565,81.4777 6.10232,8.4449 4.05899,21.0062 4.993,31.0164 0.49109,8.9331 1.39332,18.0011 1.31233,26.9446 -0.99655,37.1521 -46.77324,31.1088 -72.59946,35.9295 -16.12626,1.8801 -32.32634,3.1889 -48.52539,4.2069 -41.08409,2.5584 -82.39886,2.7537 -123.39887,-1.2267 -26.472129,-0.8404 -32.164354,-18.1424 -32.122318,-41.8088 l -0.04042,-0.9792 c -0.5965,-16.0627 1.988465,-35.4574 17.213468,-43.8097 0.75869,-8.4864 5.05554,-17.0559 9.44262,-24.4724 20.40055,-34.3663 51.03009,-64.4821 57.0545,-105.7226 5.90958,-26.9986 -0.78534,-86.4294 26.60644,-100.5062 0.63566,-12.1552 8.08825,-24.5493 17.31658,-31.1203 1.78087,-10.1265 8.49015,-19.4356 12.64142,-28.7416 8.46657,-17.7674 16.2985,-35.8163 24.71996,-53.5983 -4.40963,-1.8697 -9.09505,-5.3078 -9.7102,-10.1899 -4.23329,0.052 -8.41634,-2.6903 -7.90371,-7.8527 1.49507,-14.9876 4.76746,-29.7263 7.85786,-44.455 l 0.38521,-1.8411 c 54.98861,-266.3316 168.54194,-515.3789 234.97755,-778.2973 -8.93921,1.6204 -17.29608,-8.6214 -22.23782,-15.29 -15.96324,-21.5349 -25.39151,-47.5924 -29.53764,-74.0301 l -7.50321,-0.932 c -25.02325,-3.0783 -50.1706,-5.7741 -75.40317,-5.0496 l -6.08123,0.2038 c -6.7559,0.2068 -13.52371,0.1529 -19.94592,-2.2827 -4.48037,0.4155 -9.14528,-1.9944 -10.25256,-7.0322 -18.68838,-93.32236 27.24824,-181.88733 60.15181,-266.21533 7.75094,-20.73299 13.26784,-41.76721 18.52741,-63.2377 0.17327,-0.69595 1.26004,-0.55052 1.23031,0.1662 -1.02526,23.86994 -6.93176,47.93724 -12.93054,70.94505 -19.6962,78.01358 -60.73005,154.51685 -50.69792,237.11018 31.18524,-24.6095 68.22366,-41.7018 107.12907,-48.9344 2.24532,-9.7744 4.72644,-19.4762 6.5924,-29.31289 -1.83521,-15.12387 -3.08602,-30.32044 -4.68542,-45.51702 -4.77769,-45.45469 -12.0765,-90.79511 -21.80618,-135.45102 -15.09383,-44.93221 -28.27146,-90.47311 -32.98354,-137.84841 l -0.85766,0.16905 c -10.46481,2.1285 -21.99473,6.74871 -31.70346,0.0699 -6.16179,-4.27956 -8.82849,-11.37406 -11.31781,-18.18811 -7.11221,-16.51991 -8.42761,-38.23554 11.69613,-45.14307 -7.5018,-52.52531 -2.62774,-107.35866 6.43964,-159.39265 7.25984,-45.60945 23.1872,-90.54478 17.22533,-137.23659 -6.61905,-44.86781 -18.96109,-91.86086 -1.11958,-135.78134 C 395.92966,104.6195 470.18285,69.842927 543.20778,58.650644 l 1.18311,-0.34832 c 9.03411,-2.679911 17.26041,-5.504906 26.67312,-3.474195 22.20193,-41.280045 58.20895,-24.490064 93.37012,-15.29006 2.3745,-6.99998 4.35222,-14.160963 6.21306,-21.315714 1.15854,-3.644893 0.77612,-12.054426 4.81871,-13.221955 z m 203.51344,2400.6121 -0.0913,1.8008 c -0.92996,19.3274 0.1174,35.8865 24.03211,35.7596 16.45606,1.7608 32.91454,3.4747 49.39706,4.9668 l 6.18211,0.5488 c 48.91938,4.3716 98.42618,6.51 147.25248,-0.054 l 2.0341,-0.2786 c 4.0805,-0.5817 11.6366,-0.4674 14.8672,-3.4901 3.894,-5.2508 -0.6141,-15.262 -1.5594,-21.3562 -76.1848,-0.8881 -152.46895,-3.7041 -228.70396,-2.7319 -8.0175,0.042 -11.63666,-6.8244 -10.89848,-13.0775 -0.90222,-0.6129 -1.75319,-1.3192 -2.51188,-2.0879 z m -773.50387,-9.6913 c -3.74628,13.1981 -2.82355,25.6732 -0.70742,38.8889 1.05806,13.841 7.62893,14.7271 19.51986,15.0522 46.42054,4.291 93.17635,3.3925 139.6092,-0.2067 24.88708,-2.6893 50.46108,-2.5875 74.88475,-8.1031 11.65204,-5.1739 4.92533,-21.4445 5.3221,-31.4215 -54.85123,35.4185 -137.80577,30.9229 -197.61925,10.4298 l -0.95842,-0.4096 c -14.14878,-5.9564 -32.23554,-9.7063 -40.05082,-24.23 z m 90.85722,-238.3151 c -6.30599,7.1276 -6.4371,27.4272 -6.70165,34.3364 l -0.0333,0.7726 c -0.70845,14.511 -0.59567,29.0532 -1.22313,43.5631 0.46239,61.1083 -34.75415,91.5867 -60.90742,140.7174 -7.15322,11.9235 3.25314,13.6146 11.71766,17.4818 54.81124,25.5589 119.6454,29.4666 176.90701,9.898 28.78306,-8.3815 22.49926,-27.7901 20.05505,-51.5302 -2.40628,-48.5137 23.0693,-92.2202 30.60493,-139.1489 l 0.20295,-1.2146 c 2.2467,-13.7776 6.1292,-49.0891 -15.77762,-41.5384 -4.76642,2.9396 -9.24782,-0.7478 -9.81068,-5.2559 -0.56799,0.094 -1.15034,0.1465 -1.71218,0.1558 -2.53341,15.6848 -5.15807,31.3488 -7.67917,47.0336 2.12125,1.3503 4.11025,2.8772 5.87369,4.6223 2.14279,2.1294 0.64591,6.5959 -2.58364,6.3258 -1.65989,-0.1454 -3.30031,-0.3947 -4.93149,-0.7063 -1.29285,13.6343 -22.90321,5.9841 -16.66042,-4.9443 -31.07143,-10.7581 -65.3027,-9.9001 -96.856,-1.6516 l -0.13033,0.056 c -2.44274,0.972 -20.00727,4.5015 -14.35654,7.2459 2.35501,0.2857 -3.00708,3.3707 -3.94724,-1.4033 -0.30348,-5.9945 13.34884,-8.9372 17.53189,-11.4249 -10.5499,-15.1301 -17.75847,-34.7392 -19.58241,-53.3906 z M 992.34198,2109.7 c -29.27006,-15.8821 -65.24119,-9.9873 -96.98826,-7.1776 l -1.33334,0.1518 c -8.07953,0.8708 -19.34074,1.4086 -23.04932,9.7473 -5.37029,13.359 3.53099,43.2463 6.32686,58.1064 l 0.95211,3.8971 c 2.319,9.5124 4.51838,18.9457 5.31324,28.7812 0.0195,0.3116 -0.27785,0.5297 -0.55467,0.5297 -11.12095,-11.9058 -16.11908,-27.9178 -21.31406,-43.1902 -2.21558,1.2672 -4.37887,2.6383 -6.4181,4.1445 -7.9709,27.4464 -10.63958,56.6676 -4.32853,84.6658 l 0.22647,0.9876 c 7.79606,34.6 32.06901,62.8949 34.37686,99.053 1.54199,14.618 1.19647,29.5975 5.39285,43.7928 2.3868,0.5276 4.46807,2.2914 5.4031,4.508 l 13.68352,0.017 c 66.13835,0.1129 132.29469,0.7134 198.39079,3.442 -2.1315,-18.6244 -18.5356,-35.1505 -30.0902,-47.9175 -35.4544,-36.3845 -50.7892,-88.6491 -44.9483,-139.0222 3.0727,-25.2005 17.1064,-64.7937 -17.2233,-74.1028 -2.5078,20.5377 -5.8973,41.0079 -7.7714,61.6277 6.4786,3.1328 6.0787,11.3896 -1.8363,11.2286 -3.5525,11.9786 -15.46494,7.1361 -14.17824,-4.1653 -43.57136,-16.1262 -68.56917,-21.5317 -111.01685,2.7631 -1.18827,-0.1745 3.26237,-4.9485 3.82524,-5.7972 13.41446,-14.4933 34.01596,-21.3063 53.3441,-21.5525 19.16,0 37.17889,7.2337 55.25211,12.8283 2.71666,-19.4565 4.54556,-39.0333 6.69954,-58.5565 l 0.467,-4.1827 c 1.1278,-10.2522 0.7167,-18.7178 -8.60292,-24.6074 z m -700.2092,251.2574 c 6.3771,-1.423 12.24259,-3.5836 18.72119,-2.119 22.8017,17.164 -70.36644,22.0034 -78.29886,20.785 -20.19441,-0.5959 -40.39763,-3.164 -59.83264,-8.8822 l -1.35467,-0.4041 c -1.91416,-0.5338 -21.28638,-5.9394 -17.61289,-8.3523 26.28656,2.334 52.02153,7.1703 78.8002,5.9113 13.3591,-0.2804 26.76946,-1.2256 39.98501,-3.2408 6.5719,-1.0075 13.11304,-2.2332 19.59266,-3.6979 z m 615.97442,-21.2625 c -4.17383,-6.2697 16.17649,2.0557 18.82371,2.1294 16.85317,4.1643 34.00263,7.321 51.31409,8.6318 11.60591,0.8829 23.3348,1.0699 34.9613,0.4986 8.6101,-0.2991 17.1269,-1.5737 25.6816,-2.4514 l 0.3078,-0.015 c 5.0845,-0.1768 15.2697,2.9811 8.9923,9.0428 -9.7625,7.5858 -24.2063,5.2747 -35.9055,6.3882 -35.52925,-0.1153 -73.15206,-5.8481 -104.1753,-24.2242 z m -667.96406,-45.569 c 10.24232,-1.8594 66.62221,-2.466 61.00175,14.8745 -1.36359,3.2928 -4.48037,4.3835 -7.76119,3.8651 -34.89257,-8.5051 -72.53179,-12.9539 -107.31362,-1.2267 -0.56389,0.1974 -0.95349,-0.7271 -0.39985,-0.9754 17.10128,-8.5882 35.40006,-14.593 54.47291,-16.5375 z m 731.80628,-16.952 c 9.20521,-0.7006 18.46502,-0.4544 27.67394,0.2399 l 3.77134,0.2958 c 3.8844,0.3134 7.8541,0.7158 11.5648,1.846 l 0.7386,0.2359 c 5.0566,1.634 16.4534,10.3416 7.8023,14.5318 -9.2889,3.0123 -17.1434,-0.5713 -26.10411,-2.8783 -24.97731,-5.9301 -51.23413,-3.9222 -75.98075,2.1408 l 3.48485,1.1218 v 0 c 0.2153,-0.1558 0.49315,0.2078 0.28707,0.3844 -2.5006,2.1917 -5.93624,1.4126 -7.70891,-1.3088 -0.3086,-0.4674 -0.11278,-1.2153 0.37832,-1.475 16.7732,-8.8188 35.26883,-13.7008 54.09255,-15.1343 z m -777.954,-2.2127 c 28.20906,-12.514 60.89199,-13.8957 91.14428,-10.2671 l 2.15528,0.2633 c 9.43802,1.1095 21.7481,1.6196 27.14759,10.4297 1.86597,3.0539 -0.0615,6.5544 -3.07577,7.6554 -8.8777,3.2513 -19.31583,-3.2616 -27.84495,-5.6818 -25.22336,-6.921 -52.15993,-7.6492 -77.80775,-2.8669 0.17942,0.9515 -4.06822,0.535 -4.993,0.8725 -1.15957,-0.065 -8.85309,2.4847 -6.72568,-0.4051 z m 711.36419,-19.5383 c 24.60923,-11.9942 53.06318,-14.8548 79.63169,-8.663 l 1.10448,0.3157 c 11.77237,3.3133 30.72592,7.2211 34.94352,19.711 0.9125,2.8149 -1.0663,6.6167 -4.0292,7.188 -10.0383,1.9216 -19.15183,-5.4222 -28.23561,-8.9539 -26.72536,-10.0663 -56.97864,-12.474 -84.61443,-5.0689 -0.18455,1.0906 -0.36909,2.1709 -0.56492,3.2616 0.47265,-0.3117 0.96477,0.3843 0.58542,0.7696 -4.40963,3.0955 -8.99867,-4.7189 1.17905,-8.5601 z m -647.95227,-21.086 c 19.91209,-1.327 39.99171,1.2109 59.21476,6.4742 l 3.61485,0.9984 c 5.25392,1.4767 12.05953,3.8005 12.82408,9.4898 0.29732,2.2644 -0.26657,3.8225 -2.10178,5.2258 -6.69185,5.016 -21.24639,-5.4959 -29.56738,-6.732 -30.20733,-9.0946 -62.63185,-8.9662 -93.23094,-2.0058 l -1.04243,0.24 0.73818,5.2663 c 0.72486,2.5169 -5.9998,-3.4184 -3.44486,-6.1191 16.15292,-8.2444 35.00124,-11.3533 52.99552,-12.8376 z m 666.72431,-9.4112 c 15.9817,-2.8905 32.46714,-3.4406 48.62527,-1.9853 l 1.90896,0.1779 c 9.64868,0.8547 40.91232,2.0995 33.51732,18.4478 -1.2405,2.7318 -4.8392,3.085 -7.1675,1.9008 -7.81251,-3.9679 -16.3529,-5.4013 -24.97531,-6.7101 -30.44397,-4.2453 -61.54718,-2.5054 -91.26834,5.713 0.64591,1.0179 -0.68693,2.2228 -1.94799,2.4617 -3.13729,0.5817 -3.13729,-3.1681 -1.7942,-5.1624 1.60042,-2.3579 4.78795,-3.2201 7.24856,-4.2588 11.44597,-4.9994 23.58296,-8.3773 35.85323,-10.5846 z m -605.28078,-90.9621 -1.81999,-0.4327 c -30.49756,-7.1923 -98.11217,-20.0881 -105.11429,22.0185 -2.48522,18.5454 5.71274,36.6349 5.10681,55.0006 31.62404,-12.8916 66.59452,-12.7576 99.4499,-4.238 2.9107,-19.0606 5.68915,-38.1421 8.66239,-57.1923 l 0.48064,-2.2772 c 1.32365,-6.4267 1.77294,-11.4512 -6.76546,-12.8789 z m -67.92336,7.6669 c 6.64571,-5.713 17.72874,-5.631 24.24732,0.6024 5.96187,1.2548 10.16644,7.5973 10.26282,13.0361 9.06429,15.9673 -1.86597,38.0309 -19.17128,42.0165 -39.07663,8.2547 -56.54495,-45.5441 -15.33886,-55.655 z m 677.01738,-25.4804 c 32.69543,-5.8543 44.57303,35.7208 17.73796,52.5814 -37.90681,19.0596 -63.16504,-40.8635 -17.73796,-52.5814 z m -660.83873,-92.3424 c 0.48187,3.1785 -1.07857,5.4408 -2.94248,7.5827 -6.70313,27.5429 -16.79166,53.1745 -26.7387,79.5769 32.36018,-5.3765 62.93436,-0.6846 91.5667,8.1228 0.34244,-8.0564 4.00568,-16.4088 6.55036,-24.005 4.9547,-14.4222 10.94498,-28.4748 17.85383,-42.0468 l 0.86839,-1.694 c 2.48112,-4.83 4.86997,-9.8783 7.80117,-14.5006 -31.6712,-4.3346 -63.3424,-8.2402 -94.95927,-13.036 z m 637.85319,-5.8688 -0.84322,3.8333 c -3.63543,16.6244 -7.08502,33.4052 -12.49537,49.5572 l -0.0738,0.3343 c -0.82838,4.0756 -2.69063,22.9481 -3.86315,9.6271 -0.90222,2.0048 -1.86596,3.9887 -2.89122,5.9415 l 7.84198,-0.9365 c 29.24927,-3.4411 59.76441,-6.185 88.45013,1.1755 -2.97632,-23.1159 1.40562,-45.2023 7.8022,-67.0603 -28.03769,-0.646 -55.8283,-0.4383 -83.92751,-2.4721 z m -530.97018,28.7312 c -1.02526,0.966 -2.02898,1.9528 -2.9835,2.9811 1.29285,-0.3324 2.58468,-0.6544 3.7832,-0.9348 -0.0492,-0.7594 -0.5844,-1.3296 -0.7997,-2.0463 z m 631.84513,-21.2005 -0.9124,2.1502 v 0 c 0.4726,-0.2804 0.9955,-0.5505 1.5584,-0.7894 -0.2564,-0.4155 -0.4717,-0.8622 -0.646,-1.3608 z m -756.05395,-4.7158 c -0.33116,1.233 -0.5844,2.5885 -1.18007,3.7083 0.47162,0.083 0.95349,0.1766 1.43638,0.2804 0.58337,-1.1841 1.19955,-2.3371 1.86495,-3.4693 -0.70743,-0.1662 -1.41486,-0.3324 -2.12126,-0.5194 z M 493.65713,657.5598 c -2.87072,1.39189 -5.86447,1.74506 -9.82093,1.91126 -32.15513,1.33684 -64.2067,5.07002 -95.78051,11.43638 1.74294,25.60462 9.51438,50.40942 16.90956,74.8195 l 1.53363,5.34991 c 24.98766,87.46274 46.79857,178.85827 42.4058,270.33855 0.24606,0.094 0.48187,0.2182 0.70845,0.3324 -0.39985,1.121 -0.68579,2.2694 -1.08742,3.3796 l -0.25669,0.6611 -1.50016,3.735 c -0.8291,2.0741 -1.63457,4.1554 -2.3343,6.2887 -1.22724,0.4435 -2.73539,0.7687 -4.1728,0.9764 -7.2947,48.4327 -0.35884,102.7374 32.51192,140.6125 -11.71829,-23.6451 -15.80574,-50.506 -15.28985,-76.7745 l 0.0925,-4.0148 c 0.13459,-4.9628 0.43092,-9.9072 1.93975,-14.6178 0.0615,-0.2493 0.3896,-0.2077 0.47264,0 6.95945,21.5453 7.41261,44.9509 14.25005,66.6551 l 0.52312,1.6655 c 5.40765,17.0074 14.43775,38.9051 30.1218,47.6948 2.88763,0.8618 7.32924,-0.1582 8.8301,3.1775 l 0.0999,0.2399 0.0923,-0.031 c -7.00127,-22.9902 -11.50893,-46.7628 -13.05334,-70.7626 l -0.1007,-1.6367 c -0.49213,-8.3721 -1.57788,-17.3467 0.5034,-25.5226 3.96774,7.4758 2.98144,19.687 4.82793,28.7323 l 0.0734,0.516 c 1.4582,9.7747 15.49772,84.4963 24.71832,74.5112 1.90499,-2.7543 1.40954,-8.0768 1.46759,-11.3545 l 0.008,-0.3208 c 0.14456,-4.7366 0.0923,-9.4732 -0.0707,-14.2098 -0.99552,-27.9033 -5.3221,-56.54 3.15677,-83.7214 1.41588,-4.5807 9.1053,-5.4429 10.03829,0 3.73193,21.7717 7.2988,43.5642 10.86669,65.3567 2.60108,13.3103 2.4924,28.324 10.39611,39.8041 0.0923,-25.0635 -1.29388,-50.0553 -2.4924,-75.0896 l -0.32071,-1.0425 c -0.94734,-3.1588 -1.88139,-7.2616 0.29097,-9.9472 0.87147,-5.713 9.19758,-5.0586 9.90398,0.9244 0.15482,1.2465 0.26657,2.5137 0.3896,3.7706 2.75897,3.4693 5.32211,7.0114 8.5814,9.9926 21.76927,-44.5625 -49.45633,-121.5238 -59.28957,-171.84703 -28.96042,-97.99869 -12.31026,-200.74955 -3.88675,-300.54524 -8.71058,-1.03353 -17.49293,-1.30983 -26.25682,-1.44383 z M 908.12739,93.541481 c 15.22506,30.642439 26.40036,63.071499 34.14105,96.445789 2.38526,10.30397 -11.39758,16.62733 -16.96584,7.60025 l -0.1662,-0.27826 c -6.84769,-11.45508 -17.05207,-21.54424 -29.96825,-25.48932 -8.80081,36.99634 -4.51216,76.09298 0.0605,113.44975 8.10751,52.04569 14.55943,104.31295 15.52513,157.05394 l 0.0465,2.82587 c 2.8256,180.11213 29.22289,359.41301 58.13513,535.7556 46.22059,7.44663 88.53499,28.4466 131.14059,46.9089 7.4023,2.8981 14.9687,5.4222 22.7207,7.1672 -21.4064,-199.92686 -102.8169,-387.42434 -127.97254,-586.621 -6.64879,-51.80754 -6.96149,-104.41594 2.22378,-155.92329 0.15482,-0.98679 1.54814,-0.6544 1.60966,0.21813 1.00885,21.15783 4.6167,42.03935 6.7564,63.08188 1.4559,-12.01806 4.8187,-24.19194 7.5356,-35.71143 3.3219,-11.26914 4.5491,-29.36169 14.2829,-36.7086 l 0.6141,-2.12939 v 0 c 0.2563,-0.91408 1.6097,-0.52976 1.3954,0.38432 -0.1025,0.43627 -0.2061,0.86215 -0.2984,1.29841 6.252,1.66716 0.4122,9.10237 -1.138,12.66208 -10.0342,26.99963 -13.0197,56.22525 -19.8695,84.05378 9.9112,86.87497 27.7619,172.64784 49.7465,257.08491 20.1986,-5.34529 40.4648,-10.4901 60.7147,-15.71594 -45.1687,-147.67372 -18.7571,-312.47917 -86.4302,-453.48635 -25.3546,-47.32128 -87.79472,-40.8926 -123.83967,-73.927229 z M 564.9545,66.544969 c -9.47337,-0.508976 -19.36812,4.653496 -28.46215,6.429719 -12.05702,2.347523 -24.05252,4.206844 -35.84297,7.812265 -60.35173,16.613398 -118.57709,61.980837 -129.51042,127.346877 -7.51514,44.88339 11.09327,88.61379 10.43916,133.37254 -1.96337,44.34325 -16.52509,86.96221 -22.19886,130.85881 -6.82513,44.88755 -9.17502,91.87124 -3.3208,136.97692 54.13867,-15.42198 110.6785,-16.388 166.1941,-8.42408 -4.63006,-68.36589 1.44561,-137.06936 4.80743,-205.38747 2.41961,-43.87582 6.56164,-87.949 5.09655,-131.90793 -0.0318,-0.9764 1.54712,-1.21531 1.69885,-0.2389 16.64915,89.78236 6.8846,180.92441 5.20113,271.47127 -1.06729,22.87692 1.75319,45.97198 0.61515,68.72217 25.23875,5.45643 24.32627,35.01029 16.60814,54.49058 -1.3677,4.68777 -6.01108,3.87445 -9.76967,3.30419 -4.07335,4.29825 -13.78971,-1.30984 -19.32712,-1.3088 -4.33478,112.39129 -30.6685,232.43904 23.29383,337.48542 22.56069,0.1245 44.27778,-7.69255 66.20418,-12.12552 l 1.1962,-0.23838 0.0308,-0.0104 c 3.2234,-4.21411 4.79922,-10.98661 5.22983,-15.94445 3.06449,-86.554 -6.52576,-173.30536 -0.91555,-259.8687 6.87229,-96.0812 28.21608,-191.57656 18.34491,-288.30904 C 633.73985,334.5978 615.0031,249.70949 605.97108,163.51357 l -0.45841,-4.45959 c -0.56184,-5.31413 -0.77509,-11.18605 -3.39257,-15.23813 -15.23737,13.94179 -28.02232,30.51988 -37.17683,49.1723 -5.06785,9.00991 -18.6443,5.00043 -18.85345,-5.17183 -1.95209,-18.16288 -2.24103,-36.39438 -0.26344,-54.56118 l 0.1804,-1.60278 c 2.45138,-22.74085 9.29395,-44.446084 18.94776,-65.107401 z m 566.443,623.765891 c -19.6234,1.04184 -39.2724,3.22836 -58.9307,2.97076 l 1.9793,7.45722 c 23.7976,89.48161 49.1377,178.80358 64.077,270.36067 l 0.5427,-8.58556 c 0.5405,-8.58654 1.0574,-17.17746 1.395,-25.78591 4.2384,-82.28275 -2.234,-164.45851 -9.0633,-246.41718 z M 620.5429,119.2292 c 0.082,3.71864 0.26656,7.42689 0.55466,11.12476 9.06942,13.66342 8.26357,31.82452 10.29358,47.54253 11.3824,84.88373 28.14432,169.41844 33.79143,255.18404 5.25444,68.60999 -3.32593,136.97899 -12.09598,204.89927 -10.81543,77.7861 -9.6815,156.37826 -7.16859,234.68995 41.55775,-37.77953 100.62484,-44.40869 153.06057,-56.14422 l 2.49398,-0.50831 c 40.31843,-8.29327 80.5527,-20.31271 114.80666,-43.92739 -24.63487,-176.97725 -18.83704,-356.23243 -44.02555,-533.05387 -0.77612,-13.92414 -0.93503,-27.92721 0.21531,-41.83992 -1.10626,-15.06258 -1.43639,-30.20722 -1.4651,-45.30927 -11.03791,44.61436 -48.02199,87.71737 -96.4787,86.30886 -51.55811,-3.03932 -95.32016,-45.44846 -128.93525,-81.80078 -9.11351,-10.84431 -18.17678,-23.50639 -25.04702,-37.16565 z m 453.4403,571.16476 -2.3274,-0.11426 0.1436,0.50897 v 0 c 0.4784,-0.0969 0.966,-0.18466 1.4536,-0.2693 z m 63.9555,-60.43313 c -0.3681,-0.11426 -0.9945,-0.11426 -1.6917,-0.0831 -1.0047,2.32675 -3.0337,4.24839 -5.3918,4.88201 l -19.6719,5.33918 c -16.396,4.44733 -32.8008,8.8758 -49.2254,13.18133 2.7569,10.67811 5.5569,21.35622 8.3856,32.02395 22.4019,-7.2659 47.2059,-5.61744 70.0466,-10.29379 -0.281,-12.32553 -0.9504,-24.71443 -1.1596,-37.06177 -0.051,-2.01513 0.3588,-5.25596 -0.6664,-7.06335 -0.6449,-1.15298 0,-0.72711 -0.6254,-0.92446 z m -752.51689,41.48675 -0.61618,0.13503 v 0 c 0.20505,0.56092 0.39062,1.12183 0.56491,1.69313 0.0103,-0.61285 0.0195,-1.21531 0.0513,-1.82816 z m 145.84276,-59.31131 c -42.20572,-6.18562 -85.12911,-9.8409 -127.69674,-5.63094 -19.25432,2.62487 -38.79982,5.42528 -57.66967,9.0068 -6.56267,10.14733 0.69718,34.83891 8.86745,42.65013 2.45036,0.93486 6.66417,-0.88292 9.012,-1.41267 17.61699,-4.00637 35.40519,-7.23369 53.28362,-9.75364 0.53211,0.67517 1.3113,1.11144 2.27504,1.01795 l 4.1075,-0.38232 c 24.65746,-2.26295 49.53291,-3.92238 74.24364,-2.50534 l 0.18352,0.14542 v 0 c 16.6717,1.2257 33.28599,3.87134 49.88899,5.78571 6.55447,-17.26364 5.42464,-37.07112 -16.49535,-38.9211 z M 838.3597,49.115131 c 1.63016,5.563422 3.59045,10.969995 6.02749,16.224915 2.54468,-0.709451 6.05413,-0.140229 7.92523,1.474992 l 0.79546,-0.145037 c 2.18863,-0.418569 4.81714,-1.058732 5.50064,-1.132597 30.15588,-4.204767 27.85827,36.442696 27.96798,56.870296 0.18454,10.24185 0.38959,20.49408 0.69717,30.73593 8.63061,-2.96141 20.16988,2.36206 27.71269,7.07373 -5.90548,-19.80852 -12.84647,-39.29504 -20.58715,-58.43877 l -1.46562,-3.73017 C 886.83508,82.603716 880.08344,66.964614 867.12738,56.209636 857.27671,53.613858 847.73362,53.142276 838.3597,49.115131 Z M 619.71346,38.916911 c -28.02949,-10.072535 -39.13302,12.81789 -46.90651,35.647029 -9.1658,25.282613 -11.66743,53.12049 -10.13979,80.32475 l 0.94369,-1.25823 c 10.31205,-13.85107 25.18208,-36.71512 43.98408,-33.04053 -0.18557,-10.50984 0.19172,-22.055289 2.19302,-32.969192 -1.16777,-7.042569 -1.46611,-14.157848 -0.65514,-21.273127 0.42856,-8.921626 10.07418,-7.568165 16.42359,-8.829179 5.49538,-3.687481 12.14929,-5.17286 18.83396,-2.576043 5.04427,-0.675172 10.08853,-1.319183 15.13279,-1.963193 0.77407,-1.7139 1.39948,-3.436109 2.05052,-5.193635 -13.9599,-2.907397 -27.91672,-5.904124 -41.86021,-8.86865 z"
           id="ðŸ–-Ink-5"
           fill="#000000" />
      </g>
      <g
         id="accessories/Glasses-3"
         stroke="none"
         stroke-width="1"
         fill="none"
         fill-rule="evenodd"
         transform="matrix(0.44525711,0,0,0.44525711,-38.53222,-83.44959)">
        <path
           d="m 367.1336,98.3183 c -6.733,9.045 -19.215,11.926 -30.728,10.931 -24.831,-2.39 -32.646,-30.591 -33.46,-52.51 16.651,4.684 -1.408,-28.49 55.511,-32.138 20.065,-1.672 14.533,10.446 23.398,19.3 -0.182,18.582 -3.275,38.773 -14.721,54.417 m -118.271,-21.352 c -14.66,68.653 -94.938,52.323 -103.371,-9.563 7.787,-5.496 5.736,-19.067 15.41,-23.984 15.332,-9.796 34.498,-9.377 51.909,-9.147 22.255,1.529 28.597,10.748 40.029,20.806 -0.55,6.718 -2.136,14.68 -3.977,21.888 m 150.072,-63.735 c -0.823,-0.137 -1.647,-0.266 -2.471,-0.387 -0.643,-0.365 -1.398,-0.646 -2.276,-0.815 -2.005,-0.509 -3.996,-0.852 -5.984,-1.037 -28.532,-6.421 -94.539,2.696 -97.263,27.044 -9.086,3.033 -16.948,0.317 -27.479,0.587 -8.016,-33.505 -146.599,-28.776 -153.264,-8.576 -0.025,-0.007 -0.05,-0.013 -0.076,-0.021 -6.404,-1.982 -15.845,-1.504 -23.175,-1.818 -15.651,-0.328 -31.32,1.067 -46.633,4.368 -28.675,4.557 -67.81,9.892 -47.867,45.7 0.004,0.006 0.007,0.013 0.012,0.019 l 0.003,-0.003 c 3.437,3.523 9.27,0.686 9.487,-4.083 -6.705,-16.964 8.439,-19.001 20.091,-23.876 28.993,-10.416 58.511,-11.86 88.497,-8.638 2.256,2.656 5.679,4.972 9.297,6.184 20.049,3.328 9.483,18.2 22.156,20.363 -2.328,51.842 60.613,80.14 97.082,46.061 14.561,-14.236 18.032,-35.325 21.408,-54.334 1.785,-0.401 2.92,-1.377 3.583,-2.669 4.293,-4.286 6.99,-8.244 15.479,-9.421 8.489,-1.176 15.024,1.185 15.908,1.908 0.223,0.449 0.462,0.899 0.74,1.349 0.388,0.671 0.916,1.206 1.516,1.627 -8.383,51.624 31.694,84.272 72.153,57.497 17.58,-16.537 21.295,-41.855 22.029,-64.453 2.383,-1.438 3.892,-4.225 3.067,-7.729 -1.137,-4.83 1.529,-9.012 5.775,-11.112 5.517,-2.727 4.541,-12.686 -1.795,-13.735"
           id="ðŸ–-Ink-2"
           fill="#000000" />
      </g>
    </g>
    <g
       id="head/mono/Pomp"
       stroke="none"
       stroke-width="1"
       fill="none"
       fill-rule="evenodd"
       transform="matrix(0.13151368,0,0,0.13151368,35.798586,0.55423177)">
      <path
         d="m 385.41465,173.22156 c -3.861,-23.35914 8.81101,-28.20574 0,-50.41064 -19.582,-41.143608 -72.947,-39.370848 -112.107,-42.534282 -43.67799,-1.673997 -87.886,4.092213 -128.152,21.598352 -9.618,4.181 -18.869,9.09824 -27.73699,14.68488 -7.66801,4.83145 -6.61401,14.01748 -1.779,19.02849 -34.865005,49.37193 -14.92401,115.64345 -42.743005,167.61317 -5.139,9.28978 -11.936,17.61986 -16.403,27.28575 -6.79,14.69286 -7.225,35.74551 8.173,45.50318 21.687,11.64016 33.789,-11.40672 44.445005,22.00238 53.21799,116.49042 160.217,123.05074 261.79299,62.31698 8.788,-4.88831 17.757,-10.4131 24.39301,-18.09274 15.06299,-16.95146 13.28899,-40.78945 13.62199,-61.95783 0.18601,-12.40533 0.21701,-24.81266 0.096,-37.21999 -0.474,-50.25781 -17.131,-119.97389 -23.601,-169.8177 z"
         id="ðŸŽ¨-Background"
         fill="#ffffff"
         style="fill:none" />
      <path
         d="m 169.0666,33.5077 c 61.33,-27.82 130.891,-38.37 197.791,-31.45 33.02068,3.4102034 65.60648,10.726551 96.6174,22.611199 l 2.71826,1.050485 c 7.6552,2.946326 15.90711,5.870874 21.72434,11.868316 6.771,6.97 8.67,17.51 3.83,26.12 -3.76,6.69 -10.52,11.489 -17.73,14.05 2.54,2.08 4.95,4.4 7.21,6.99 3.81,4.34 4.1,10.529 0,14.81 -7.9,8.25 -18.15,14.219 -29.19,17.08 1.24,5.99 0.57,12.62 -2.09,18.59 -7.6329,17.1369 -29.13422,19.17928 -45.68014,18.16176 l -0.49986,-0.0318 -0.92,10.53 c -0.49,5.61 -3.85,9.96 -9.55,10.82 -0.2,0.03 -0.401,0.05 -0.6,0.069 9.02,32.621 14.47,66.25 19.5,99.681 2.628,17.451 4.9806,34.9425 7.23276,52.44534 l 0.74724,5.83466 c 2.4,18.87 5.4,37.93 6.44,56.94 0.93,17.25 -2.36,33.72 -12.99,47.64 -9.54,12.48 -22.55,21.83 -36.54,28.77 -31.61,15.689 -64.88,27.37 -99.84,32.79 l -2.33137,0.35874 c -13.49479,2.05978 -27.39881,3.7958 -40.74863,0.0613 -11.729,-3.28 -24.03,-11.74 -21.38,-25.33 0.89,-4.59 7.31,-4.79 9.51,-1.24 l 0.50783,0.81344 c 2.63809,4.18572 5.5292,8.07589 10.13317,10.23556 5.389,2.541 11.639,3.25 17.529,3.321 16.45,0.19 33.58,-3.91 49.42,-8.02 29.58,-7.679 59.96,-20.2 84.19,-39.17 10.31,-8.06 18.59,-18.14 21.51,-31.11 3.61,-15.99 0.29,-33.47 -1.35,-49.54 -3.375,-33.15938 -7.3916,-66.25723 -11.62958,-99.31827 l -0.85042,-6.61173 c -3.569,-27.64 -7.319,-55.29 -9.1,-83.09 -0.74,-1.01 -1.24,-2.16 -1.44,-3.42 l -0.279,-1.81 v 0 c -0.241,-1.55 -0.281,-2.97 -0.111,-4.28 0.01,-5.02 0.15,-10.01 0.44,-15.031 0.049,-0.899 0.09,-1.799 0.12,-2.689 -5.22,1.15 -10.48,2.08 -15.76,2.87 -37.12,5.59 -74.82,6.99 -112.24,4.21 -18.67,-1.391 -37.199,-3.78 -55.67,-6.77 -9.401,-1.52 -18.77,-3.2 -28.11,-5.08 -6.75,-1.35 -13.36,-3.18 -20,-4.9 -6.85,9.97 -10.55,22.24 -9.83,34.29 0.81,13.75 9.97,26.22 7.4,40.27 -2.412,13.149 -13.6773,17.226 -24.79931,20.48255 l -4.73034,1.36667 c -3.63914,1.06252 -6.28163,2.08759 -6.94035,6.46078 -1.13,7.51 0.26,15.96 0.55,23.51 0.35,8.93 0.809,17.86 1.02,26.79 0.11,4.62 0.289,9.26 0.28,13.88 -0.01,3.28 -0.5,5.52 -1.77,7.639 0.98,1.231 1.859,2.561 2.64,3.971 0.25,0.46 -0.37,0.949 -0.739,0.57 -0.991,-1.03 -2.042,-1.96 -3.151,-2.791 -0.56,0.691 -1.21,1.391 -1.971,2.141 l -0.059,-0.08 v 0 c -2.38,2.37 -6.16,2.6 -9.111,0.08 l -0.774334,-0.67089 c -2.159905,-1.89333 -3.643976,-3.47014 -4.244666,-6.59911 -0.03,-0.16 -0.061,-0.32 -0.08,-0.48 -5.49,-0.19 -11.07,1.109 -16.01,3.84 -7.83,4.33 -13.34,10.5 -16.599,18.12 1.299,1.52 2.819,2.88 4.589,4.02 0.25,0.17 0.03,0.54 -0.24,0.41 -1.81,-0.85 -3.43,-1.9 -4.88,-3.13 -1.17,3 -1.99,6.22 -2.49,9.63 -1.76,12.04 1.38,26.75 12.26,33.61 4.71,2.97 10.09,4.58 15.67,4.6 2.719,0.009 5.07,-0.45 7.71,-1.1 1.79,-0.44 3.57,-1.08 5.44,-1.08 1.6,0 3.08,0.4 4.45,1.2 l -0.37996,0.0333 c -0.92337,0.0867 -0.74575,0.12573 0.53996,0.12573 4,0.171 6.289,4.231 4.45,7.761 l -0.24129,0.54535 c -0.0508,0.11024 -0.0939,0.20122 -0.12771,0.27365 l -0.14531,0.93635 c -0.0145,0.089 -0.0297,0.18065 -0.0457,0.27465 l -0.0556,0.18963 c -0.01,0.0304 -0.0211,0.0604 -0.0344,0.0904 v 0 c 7.35525,11.19137 20.87357,31.48786 29.43,41.71 6,7.17 12.36,14.2 19.08,20.71 6.04,5.85 13.28,8.67 20.12,13.27 3.651,2.44 4.72,7.55 1.401,10.84 -9.741,9.67 -23.531,1.99 -31.521,-5.87 -7.56,-7.45 -14.09,-16.41 -19.72,-25.38 -9.99,-15.95 -17.94,-32.91 -21.42,-51.32 -1.45,1.33 -3.3,2.16 -5.17,2.81 -3.75,1.3 -7.88,1.84 -11.84,1.98 -7.59,0.25 -15.19,-1.59 -22.02,-4.85 -27.79,-13.25 -31.87,-52.93 -14.88,-76.33 -2.290909,-6.64364 -3.570434,-13.85219 -4.96054,-19.99925 l -0.632426,-2.74784 C 37.999976,258.64779 33.2818,226.33292 45.7376,196.2577 c 1.6,-3.88 3.4,-7.66 5.53,-11.28 1.71,-2.91 4.65,-6.01 5.46,-9.32 1.8,-7.27 -9.31,-14.91 -12.55,-20.68 -3.81,-6.77 -4.35,-14.76 0.84,-20.951 0.66,-0.779 1.379,-1.5 2.16,-2.129 -4.92,-8.92 -5.15,-20.14 1.33,-28.94 4.26,-5.8 10.76,-9.86 17.86,-11.09 4.34,-0.75 9.56,-0.47 14.33,0.87 26.119,-24.25 55.92,-44.51 88.369,-59.23 z M 68.7671,336.9378 c 6.971,-6.15 14.671,-9.37 24.171,-8.56 9.55,0.819 21.05,4.77 26.659,12.96 4.431,6.47 -4.599,15.96 -11.099,11.1 -5.92,-4.43 -9.871,-9.43 -17.22,-11.81 -6.601,-2.13 -14.771,-3.5 -21.681,-2.28 -0.76,0.13 -1.519,-0.81 -0.83,-1.41 z"
         id="ðŸ–-Ink-9"
         fill="#000000"
         sodipodi:nodetypes="cccccccccccccccccccccccccccccccccccccccsccccccccccccccccccccccscccccccccccccsccccccccccccccccccccccccccccccccccccscccc" />
    </g>
    <path
       style="fill:none;stroke:#000000;stroke-width:0.0939383;stroke-opacity:1"
       d="m 67.983621,66.405268 c -1.902894,-0.186057 -3.38742,-0.974791 -3.969686,-2.10911 -0.260941,-0.50834 -0.276928,-1.362995 -0.03059,-1.635196 0.198619,-0.219472 0.600131,-0.258131 0.822314,-0.07918 0.08019,0.06459 0.276007,0.311658 0.435164,0.549057 0.402872,0.600927 0.850076,0.968195 1.490416,1.224018 0.506333,0.202283 0.68309,0.218874 2.332673,0.218951 2.031707,9.2e-5 2.82927,-0.118962 5.717055,-0.853401 5.422565,-1.3791 9.941645,-3.603371 12.46291,-6.134194 1.1321,-1.136392 1.639983,-1.991251 1.937883,-3.261835 0.40028,-1.707298 0.10929,-5.168272 -1.527073,-18.162754 -1.00524,-7.982629 -1.14445,-9.170805 -1.30424,-11.131693 -0.0842,-1.033321 -0.2201,-2.084199 -0.30199,-2.335282 -0.11989,-0.367572 -0.13943,-0.738191 -0.1003,-1.902251 0.0267,-0.795155 0.019,-1.445736 -0.0171,-1.445736 -0.0361,0 -0.67761,0.103662 -1.425515,0.230362 -1.6613,0.281431 -4.225889,0.57334 -6.227556,0.708836 -1.887847,0.127794 -6.727238,0.126528 -8.565607,-0.0022 -4.149252,-0.290629 -10.175582,-1.19314 -13.178977,-1.973704 -1.240903,-0.322504 -1.117836,-0.375972 -1.655869,0.719405 -0.485862,0.989158 -0.711611,1.971089 -0.71241,3.098724 -7.9e-4,1.086071 -0.0021,1.078512 0.492691,2.712751 0.611319,2.018948 0.639179,2.942879 0.117639,3.901124 -0.4454,0.818347 -0.976492,1.150457 -2.848324,1.781163 -1.588285,0.535167 -1.628879,0.579803 -1.641715,1.805173 -0.005,0.480869 0.04768,1.973386 0.117161,3.316705 0.06948,1.343319 0.103017,3.076481 0.07455,3.851471 -0.06847,1.863744 -0.06609,1.839095 -0.171503,1.773946 -0.05038,-0.03114 -0.204408,0.04894 -0.342292,0.177938 -0.343334,0.321226 -0.613197,0.385826 -0.927055,0.221919 -0.351143,-0.183379 -0.744238,-0.608619 -0.869815,-0.940941 -0.09926,-0.262696 -0.115624,-0.268429 -0.593091,-0.207928 -1.173563,0.148707 -2.405767,0.820438 -3.096288,1.687931 -1.30539,1.639941 -1.566007,4.122631 -0.619239,5.898952 0.518278,0.972389 1.423763,1.58396 2.658284,1.795426 0.490572,0.08404 0.729075,0.07398 1.335391,-0.05632 0.8426,-0.181069 1.214111,-0.199589 1.297487,-0.06469 0.03193,0.05167 0.158174,0.09394 0.280541,0.09394 0.290959,0 0.645018,0.440809 0.563056,0.701014 -0.174562,0.554178 -0.163466,0.582121 0.808308,2.035697 1.932913,2.891238 3.19748,4.495022 4.910647,6.227913 0.791054,0.800163 1.148518,1.078598 2.108812,1.642591 1.531701,0.89959 1.797131,1.331366 1.208682,1.96618 -0.622282,0.671314 -1.609291,0.749659 -2.673902,0.212246 -2.11954,-1.069937 -5.306752,-5.811839 -6.352258,-9.450826 -0.133597,-0.464995 -0.285163,-1.018688 -0.336816,-1.230428 l -0.09391,-0.384981 -0.446426,0.220116 c -1.300401,0.641182 -3.308505,0.496194 -4.914295,-0.35482 -1.103457,-0.584794 -2.04416,-1.68612 -2.557148,-2.993774 -0.768284,-1.958424 -0.550734,-4.51748 0.537699,-6.325003 l 0.323049,-0.536477 -0.139858,-0.470955 c -0.225774,-0.760261 -0.949191,-4.079492 -1.155614,-5.30227 -0.525706,-3.114069 -0.498594,-5.414877 0.09093,-7.716673 0.301893,-1.178748 0.917258,-2.652134 1.430813,-3.425835 0.84854,-1.278382 0.795437,-1.612781 -0.482217,-3.03661 -0.672001,-0.748884 -0.951843,-1.351348 -0.953025,-2.051748 -0.0011,-0.612211 0.137688,-1.011663 0.500923,-1.442408 l 0.248496,-0.29468 -0.210302,-0.456827 c -0.321594,-0.698579 -0.302316,-1.953408 0.04127,-2.686525 0.322158,-0.687394 1.003856,-1.369091 1.721383,-1.721383 0.529775,-0.260109 0.630925,-0.276369 1.742117,-0.280059 l 1.179688,-0.0039 0.987324,-0.86701 C 53.899308,6.2445688 61.719601,2.6886388 70.89572,1.2187198 75.353911,0.50456377 80.945384,0.43456877 85.450717,1.0365158 c 4.008413,0.535554 7.880083,1.510561 11.495253,2.894864 2.10464,0.805895 3.01103,1.422742 3.52097,2.396201 0.21073,0.402253 0.25057,0.597813 0.25057,1.229818 0,0.628819 -0.0403,0.828219 -0.24629,1.221391 -0.31091,0.593165 -1.11678,1.3604632 -1.77752,1.6924522 -0.27989,0.140631 -0.52633,0.27157 -0.54764,0.290971 -0.0213,0.0194 0.21769,0.302336 0.53112,0.628742 0.98479,1.025551 0.99827,1.643711 0.0546,2.506134 -0.88225,0.806328 -1.8946,1.413076 -2.96408,1.776512 l -0.49501,0.168215 -0.0159,0.789555 c -0.0362,1.797495 -0.89331,3.006237 -2.57629,3.633205 -0.77978,0.290493 -1.56388,0.406614 -2.75535,0.408048 l -1.0663,0.0013 -0.064,0.721968 c -0.0352,0.397081 -0.103923,0.876625 -0.152693,1.065653 -0.0975,0.377942 -0.60585,0.886321 -0.98019,0.980275 -0.28557,0.07167 -0.28559,0.07511 -0.006,1.118434 1.08011,4.036787 2.078353,9.954444 3.430733,20.33765 0.69618,5.345136 0.78372,6.302977 0.72978,7.984759 -0.0528,1.6465 -0.22191,2.448488 -0.7633,3.620265 -0.81515,1.764292 -2.514893,3.488797 -4.692703,4.761081 -1.609048,0.940013 -5.268264,2.503202 -7.714437,3.29555 -3.970467,1.286083 -8.451686,2.061837 -10.662002,1.845723 z"
       id="path1186" />
    <path
       style="fill:none;stroke:#0000ff;stroke-width:0.131514px;stroke-linecap:butt;stroke-linejoin:miter;stroke-opacity:0"
       d="m 49.545393,51.644369 c 0.431366,-0.824597 0.431366,-0.824597 0.431366,-0.824597 z"
       id="path1196" />
    <path
       style="fill:none;stroke:#0000ff;stroke-width:0.131514px;stroke-linecap:butt;stroke-linejoin:miter;stroke-opacity:0"
       d="m -48.668629,65.360741 0.431366,-0.824597 z"
       id="path1196-2"
       sodipodi:nodetypes="ccc" />
  </g>
</svg>
